<svg xmlns="http://www.w3.org/2000/svg" viewBox="0 0 512 512">
  <defs>
    <linearGradient id="bg" x1="0%" y1="0%" x2="100%" y2="100%">
      <stop offset="0%" style="stop-color:#6366f1"/>
      <stop offset="100%" style="stop-color:#4f46e5"/>
    </linearGradient>
  </defs>

  <!-- Background -->
  <rect width="512" height="512" rx="96" fill="url(#bg)"/>

  <!-- PDF Document Icon -->
  <path d="M160 96h128l64 64v256c0 17.7-14.3 32-32 32H160c-17.7 0-32-14.3-32-32V128c0-17.7 14.3-32 32-32z"
        fill="white" fill-opacity="0.95"/>
  <path d="M288 96v48c0 8.8 7.2 16 16 16h48"
        fill="none" stroke="white" stroke-opacity="0.6" stroke-width="8" stroke-linecap="round"/>

  <!-- Sound Waves -->
  <g fill="none" stroke="white" stroke-width="16" stroke-linecap="round">
    <path d="M360 200 c20-20 32-40 32-72" opacity="0.7"/>
    <path d="M360 256 c30-30 48-60 48-108" opacity="0.85"/>
    <path d="M360 312 c40-40 64-80 64-144" opacity="1"/>
  </g>

  <!-- Play Triangle in Document -->
  <path d="M190 220 l60 36 -60 36z" fill="#6366f1"/>
</svg>
